<mxfile host="app.diagrams.net" modified="2022-12-20T06:28:40.585Z" agent="5.0 (Macintosh; Intel Mac OS X 10_15_7) AppleWebKit/537.36 (KHTML, like Gecko) Chrome/107.0.0.0 Safari/537.36" etag="wlOuxUnd3TS1cQeTYJ9O" version="17.4.3" type="github">
  <diagram id="fH_GbUMZdQAh0KWkbILO" name="Page-1">
    <mxGraphModel dx="1426" dy="684" grid="1" gridSize="10" guides="1" tooltips="1" connect="1" arrows="1" fold="1" page="1" pageScale="1" pageWidth="827" pageHeight="1169" math="0" shadow="0">
      <root>
        <mxCell id="0" />
        <mxCell id="1" parent="0" />
        <mxCell id="aeq6PJHILZKV9w3RuhfS-1" value="" style="rounded=1;whiteSpace=wrap;html=1;fillColor=#dae8fc;strokeColor=#6c8ebf;comic=1;" vertex="1" parent="1">
          <mxGeometry x="130" y="130" width="320" height="280" as="geometry" />
        </mxCell>
        <mxCell id="aeq6PJHILZKV9w3RuhfS-7" style="edgeStyle=orthogonalEdgeStyle;rounded=0;orthogonalLoop=1;jettySize=auto;html=1;exitX=0.75;exitY=1;exitDx=0;exitDy=0;entryX=0.75;entryY=0;entryDx=0;entryDy=0;" edge="1" parent="1" source="aeq6PJHILZKV9w3RuhfS-2" target="aeq6PJHILZKV9w3RuhfS-3">
          <mxGeometry relative="1" as="geometry" />
        </mxCell>
        <mxCell id="aeq6PJHILZKV9w3RuhfS-12" value="XDS(secure)" style="edgeStyle=orthogonalEdgeStyle;rounded=0;orthogonalLoop=1;jettySize=auto;html=1;exitX=1;exitY=0.5;exitDx=0;exitDy=0;" edge="1" parent="1" source="aeq6PJHILZKV9w3RuhfS-2" target="aeq6PJHILZKV9w3RuhfS-11">
          <mxGeometry relative="1" as="geometry" />
        </mxCell>
        <mxCell id="aeq6PJHILZKV9w3RuhfS-2" value="Istio pilot-agent" style="rounded=0;whiteSpace=wrap;html=1;fillColor=#e1d5e7;strokeColor=#9673a6;comic=1;" vertex="1" parent="1">
          <mxGeometry x="210" y="180" width="160" height="60" as="geometry" />
        </mxCell>
        <mxCell id="aeq6PJHILZKV9w3RuhfS-5" style="edgeStyle=orthogonalEdgeStyle;rounded=0;orthogonalLoop=1;jettySize=auto;html=1;exitX=0.5;exitY=0;exitDx=0;exitDy=0;" edge="1" parent="1" source="aeq6PJHILZKV9w3RuhfS-3">
          <mxGeometry relative="1" as="geometry">
            <mxPoint x="250" y="240" as="targetPoint" />
            <Array as="points">
              <mxPoint x="250" y="320" />
              <mxPoint x="250" y="240" />
            </Array>
          </mxGeometry>
        </mxCell>
        <mxCell id="aeq6PJHILZKV9w3RuhfS-6" value="XDS(UDS)" style="edgeLabel;html=1;align=center;verticalAlign=middle;resizable=0;points=[];" vertex="1" connectable="0" parent="aeq6PJHILZKV9w3RuhfS-5">
          <mxGeometry x="0.025" y="-1" relative="1" as="geometry">
            <mxPoint y="-19" as="offset" />
          </mxGeometry>
        </mxCell>
        <mxCell id="aeq6PJHILZKV9w3RuhfS-3" value="brpc application" style="rounded=0;whiteSpace=wrap;html=1;fillColor=#ffe6cc;strokeColor=#d79b00;comic=1;" vertex="1" parent="1">
          <mxGeometry x="210" y="320" width="160" height="60" as="geometry" />
        </mxCell>
        <mxCell id="aeq6PJHILZKV9w3RuhfS-9" value="bootstrap file" style="shape=card;whiteSpace=wrap;html=1;comic=1;" vertex="1" parent="1">
          <mxGeometry x="300" y="250" width="60" height="60" as="geometry" />
        </mxCell>
        <mxCell id="aeq6PJHILZKV9w3RuhfS-11" value="Itstio Control Plane" style="rounded=0;whiteSpace=wrap;html=1;fillColor=#e1d5e7;strokeColor=#9673a6;comic=1;" vertex="1" parent="1">
          <mxGeometry x="510" y="180" width="120" height="60" as="geometry" />
        </mxCell>
      </root>
    </mxGraphModel>
  </diagram>
</mxfile>
